<svg width="113" height="61" viewBox="0 0 113 61" fill="none" xmlns="http://www.w3.org/2000/svg">
<circle cx="45.5" cy="44.5" r="3.5" fill="#F19EFF"/>
<circle cx="35.5" cy="44.5" r="3.5" fill="black"/>
<circle cx="25.5" cy="44.5" r="3.5" fill="white"/>
<path d="M20.72 35.766L27.182 24.714H21.08V23.688H28.838V23.922L22.376 34.974H29.198V36H20.72V35.766ZM35.1203 36.18C34.4483 36.18 33.8363 36.066 33.2843 35.838C32.7323 35.61 32.2583 35.292 31.8623 34.884C31.4783 34.464 31.1783 33.972 30.9623 33.408C30.7463 32.844 30.6383 32.226 30.6383 31.554C30.6383 30.882 30.7463 30.264 30.9623 29.7C31.1783 29.124 31.4783 28.626 31.8623 28.206C32.2583 27.786 32.7323 27.456 33.2843 27.216C33.8363 26.976 34.4483 26.856 35.1203 26.856C35.7923 26.856 36.3983 26.976 36.9383 27.216C37.4903 27.444 37.9583 27.768 38.3423 28.188C38.7383 28.596 39.0443 29.088 39.2603 29.664C39.4763 30.228 39.5843 30.84 39.5843 31.5C39.5843 32.172 39.4763 32.796 39.2603 33.372C39.0443 33.948 38.7383 34.446 38.3423 34.866C37.9583 35.274 37.4903 35.598 36.9383 35.838C36.3983 36.066 35.7923 36.18 35.1203 36.18ZM35.1203 27.792C34.5923 27.792 34.1183 27.882 33.6983 28.062C33.2783 28.242 32.9123 28.494 32.6003 28.818C32.3003 29.142 32.0663 29.532 31.8983 29.988C31.7423 30.444 31.6643 30.948 31.6643 31.5C31.6643 32.064 31.7423 32.58 31.8983 33.048C32.0663 33.504 32.3003 33.894 32.6003 34.218C32.9123 34.542 33.2783 34.794 33.6983 34.974C34.1183 35.154 34.5923 35.244 35.1203 35.244C35.6363 35.244 36.1043 35.154 36.5243 34.974C36.9563 34.782 37.3223 34.524 37.6223 34.2C37.9223 33.864 38.1503 33.468 38.3063 33.012C38.4743 32.544 38.5583 32.028 38.5583 31.464C38.5583 30.912 38.4743 30.414 38.3063 29.97C38.1503 29.514 37.9223 29.124 37.6223 28.8C37.3223 28.476 36.9563 28.23 36.5243 28.062C36.1043 27.882 35.6363 27.792 35.1203 27.792ZM42.6385 32.4C42.7465 33.336 43.0405 34.044 43.5205 34.524C44.0125 35.004 44.7265 35.244 45.6625 35.244C46.1665 35.244 46.6465 35.16 47.1025 34.992C47.5585 34.824 48.0145 34.62 48.4705 34.38L48.9385 35.136C48.5185 35.424 48.0265 35.67 47.4625 35.874C46.9105 36.078 46.3105 36.18 45.6625 36.18C44.3065 36.18 43.2805 35.784 42.5845 34.992C41.9005 34.188 41.5585 33.042 41.5585 31.554C41.5585 30.93 41.6485 30.336 41.8285 29.772C42.0205 29.208 42.2845 28.71 42.6205 28.278C42.9685 27.846 43.3825 27.504 43.8625 27.252C44.3425 26.988 44.8765 26.856 45.4645 26.856C45.9085 26.856 46.3285 26.922 46.7245 27.054C47.1205 27.174 47.4625 27.354 47.7505 27.594C48.0505 27.822 48.2845 28.11 48.4525 28.458C48.6325 28.794 48.7225 29.172 48.7225 29.592C48.7225 30.12 48.6085 30.564 48.3805 30.924C48.1525 31.284 47.8525 31.572 47.4805 31.788C47.1205 32.004 46.7005 32.16 46.2205 32.256C45.7525 32.352 45.2665 32.4 44.7625 32.4H42.6385ZM45.4645 27.738C45.0325 27.738 44.6365 27.846 44.2765 28.062C43.9285 28.278 43.6285 28.56 43.3765 28.908C43.1245 29.256 42.9265 29.652 42.7825 30.096C42.6505 30.54 42.5845 30.996 42.5845 31.464H44.7625C45.3745 31.464 45.8725 31.41 46.2565 31.302C46.6405 31.182 46.9405 31.032 47.1565 30.852C47.3725 30.672 47.5165 30.474 47.5885 30.258C47.6605 30.03 47.6965 29.808 47.6965 29.592C47.6965 29.028 47.4865 28.578 47.0665 28.242C46.6585 27.906 46.1245 27.738 45.4645 27.738ZM59.8021 24.714H55.5001V36H54.4021V24.714H50.1001V23.688H59.8021V24.714ZM65.6373 27.936C65.5293 27.924 65.4093 27.906 65.2773 27.882C65.1693 27.858 65.0433 27.84 64.8993 27.828C64.7673 27.816 64.6173 27.81 64.4493 27.81C63.9573 27.81 63.5133 27.966 63.1173 28.278C62.7213 28.59 62.3673 29.022 62.0553 29.574V29.646V36H61.0653V29.646C61.0653 29.166 61.0053 28.752 60.8853 28.404C60.7653 28.056 60.5853 27.756 60.3453 27.504L60.9573 26.91C61.2333 27.114 61.4493 27.354 61.6053 27.63C61.7613 27.894 61.8753 28.182 61.9473 28.494C62.2593 27.942 62.6253 27.534 63.0453 27.27C63.4653 26.994 63.9753 26.856 64.5753 26.856C64.7073 26.856 64.8393 26.862 64.9713 26.874C65.1033 26.886 65.2173 26.904 65.3133 26.928C65.4333 26.952 65.5413 26.976 65.6373 27V27.936ZM71.0324 36.18C70.3604 36.18 69.7484 36.066 69.1964 35.838C68.6444 35.61 68.1704 35.292 67.7744 34.884C67.3904 34.464 67.0904 33.972 66.8744 33.408C66.6584 32.844 66.5504 32.226 66.5504 31.554C66.5504 30.882 66.6584 30.264 66.8744 29.7C67.0904 29.124 67.3904 28.626 67.7744 28.206C68.1704 27.786 68.6444 27.456 69.1964 27.216C69.7484 26.976 70.3604 26.856 71.0324 26.856C71.7044 26.856 72.3104 26.976 72.8504 27.216C73.4024 27.444 73.8704 27.768 74.2544 28.188C74.6504 28.596 74.9564 29.088 75.1724 29.664C75.3884 30.228 75.4964 30.84 75.4964 31.5C75.4964 32.172 75.3884 32.796 75.1724 33.372C74.9564 33.948 74.6504 34.446 74.2544 34.866C73.8704 35.274 73.4024 35.598 72.8504 35.838C72.3104 36.066 71.7044 36.18 71.0324 36.18ZM71.0324 27.792C70.5044 27.792 70.0304 27.882 69.6104 28.062C69.1904 28.242 68.8244 28.494 68.5124 28.818C68.2124 29.142 67.9784 29.532 67.8104 29.988C67.6544 30.444 67.5764 30.948 67.5764 31.5C67.5764 32.064 67.6544 32.58 67.8104 33.048C67.9784 33.504 68.2124 33.894 68.5124 34.218C68.8244 34.542 69.1904 34.794 69.6104 34.974C70.0304 35.154 70.5044 35.244 71.0324 35.244C71.5484 35.244 72.0164 35.154 72.4364 34.974C72.8684 34.782 73.2344 34.524 73.5344 34.2C73.8344 33.864 74.0624 33.468 74.2184 33.012C74.3864 32.544 74.4704 32.028 74.4704 31.464C74.4704 30.912 74.3864 30.414 74.2184 29.97C74.0624 29.514 73.8344 29.124 73.5344 28.8C73.2344 28.476 72.8684 28.23 72.4364 28.062C72.0164 27.882 71.5484 27.792 71.0324 27.792ZM81.7006 26.856C82.3126 26.856 82.8526 26.976 83.3206 27.216C83.8006 27.456 84.2026 27.786 84.5266 28.206C84.8626 28.626 85.1146 29.118 85.2826 29.682C85.4506 30.234 85.5346 30.834 85.5346 31.482C85.5346 32.154 85.4326 32.778 85.2286 33.354C85.0366 33.918 84.7546 34.41 84.3826 34.83C84.0226 35.25 83.5846 35.58 83.0686 35.82C82.5526 36.06 81.9766 36.18 81.3406 36.18C80.8366 36.18 80.3866 36.162 79.9906 36.126C79.6066 36.09 79.2766 36.054 79.0006 36.018V40.5H78.0106V29.646C78.0106 29.166 77.9506 28.752 77.8306 28.404C77.7106 28.056 77.5306 27.756 77.2906 27.504L77.9026 26.91C78.1666 27.114 78.3706 27.342 78.5146 27.594C78.6706 27.846 78.7846 28.122 78.8566 28.422C79.1086 27.93 79.4806 27.546 79.9726 27.27C80.4766 26.994 81.0526 26.856 81.7006 26.856ZM81.7006 27.792C81.4006 27.792 81.1006 27.84 80.8006 27.936C80.5006 28.032 80.2246 28.176 79.9726 28.368C79.7206 28.56 79.5046 28.8 79.3246 29.088C79.1446 29.376 79.0366 29.712 79.0006 30.096V35.082C79.2166 35.106 79.5346 35.142 79.9546 35.19C80.3746 35.226 80.8306 35.244 81.3226 35.244C81.8026 35.244 82.2346 35.154 82.6186 34.974C83.0146 34.794 83.3506 34.542 83.6266 34.218C83.9146 33.894 84.1306 33.504 84.2746 33.048C84.4306 32.592 84.5086 32.088 84.5086 31.536C84.5086 31.056 84.4486 30.588 84.3286 30.132C84.2086 29.676 84.0286 29.28 83.7886 28.944C83.5606 28.596 83.2726 28.32 82.9246 28.116C82.5766 27.9 82.1686 27.792 81.7006 27.792ZM88.5877 32.4C88.6957 33.336 88.9897 34.044 89.4697 34.524C89.9617 35.004 90.6757 35.244 91.6117 35.244C92.1157 35.244 92.5957 35.16 93.0517 34.992C93.5077 34.824 93.9637 34.62 94.4197 34.38L94.8877 35.136C94.4677 35.424 93.9757 35.67 93.4117 35.874C92.8597 36.078 92.2597 36.18 91.6117 36.18C90.2557 36.18 89.2297 35.784 88.5337 34.992C87.8497 34.188 87.5077 33.042 87.5077 31.554C87.5077 30.93 87.5977 30.336 87.7777 29.772C87.9697 29.208 88.2337 28.71 88.5697 28.278C88.9177 27.846 89.3317 27.504 89.8117 27.252C90.2917 26.988 90.8257 26.856 91.4137 26.856C91.8577 26.856 92.2777 26.922 92.6737 27.054C93.0697 27.174 93.4117 27.354 93.6997 27.594C93.9997 27.822 94.2337 28.11 94.4017 28.458C94.5817 28.794 94.6717 29.172 94.6717 29.592C94.6717 30.12 94.5577 30.564 94.3297 30.924C94.1017 31.284 93.8017 31.572 93.4297 31.788C93.0697 32.004 92.6497 32.16 92.1697 32.256C91.7017 32.352 91.2157 32.4 90.7117 32.4H88.5877ZM91.4137 27.738C90.9817 27.738 90.5857 27.846 90.2257 28.062C89.8777 28.278 89.5777 28.56 89.3257 28.908C89.0737 29.256 88.8757 29.652 88.7317 30.096C88.5997 30.54 88.5337 30.996 88.5337 31.464H90.7117C91.3237 31.464 91.8217 31.41 92.2057 31.302C92.5897 31.182 92.8897 31.032 93.1057 30.852C93.3217 30.672 93.4657 30.474 93.5377 30.258C93.6097 30.03 93.6457 29.808 93.6457 29.592C93.6457 29.028 93.4357 28.578 93.0157 28.242C92.6077 27.906 92.0737 27.738 91.4137 27.738Z" fill="white"/>
</svg>
